<?xml version="1.0" encoding="UTF-8" standalone="no"?>
<svg
  width="2048"
  height="768"
  viewBox="0 0 2048 770"
  version="1.1"
  xmlns="http://www.w3.org/2000/svg"
  xmlns:svg="http://www.w3.org/2000/svg">
  <!-- <path
    id="peak-lines"
    stroke="black"
    stroke-linecap="round"
    stroke-linejoin="round"
    stroke-width="2"
    d="M1000,30 L800,30
    M1468,119 L1668,119
    M412,380 L212,380" /> -->
  <path
    id="cloud-1"
    fill="white"
    stroke="black"
    stroke-linecap="round"
    stroke-linejoin="round"
    stroke-width="4"
    d="M577,369 C551,368 535,327 576,318 580,282 624,282 632,304 647,296 673,305 672,330 701,323 706,365 681,368 Z" />
  <path
    id="mountain-3-fill-top"
    fill="lightgrey"
    d="M1257,277 L1438,119 1936,674 Z" />
  <path
    id="mountain-3-fill-bottom"
    fill="grey"
    d="M1257,277 L1311,230 1350,264 1384,236 1452,300 1535,228 1936,674
    1936,768 1257,768 Z" />
  <path
    id="mountain-3-stroke"
    fill="none"
    stroke="black"
    stroke-linecap="round"
    stroke-linejoin="round"
    stroke-width="4"
    d="M1257,277 L1438,119 1936,674
    M1311,230 L1350,264 1384,236 1452,300 1535,228" />
  <path
    id="cloud-4"
    fill="white"
    stroke="black"
    stroke-linecap="round"
    stroke-linejoin="round"
    stroke-width="4"
    d="M1656,378 c-30,0 -48,-49 2,-56 5,-40 61,-36 65,-5 10,-16 40,-9 42,13 31,-2 43,42 6,47 z" />
  <path
    id="mountain-2-fill-top"
    fill="lightgrey"
    d="M268,768 L798,180 851,221 1030,30 1705.5,768 Z" />
  <path
    id="mountain-2-fill-bottom"
    fill="grey"
    d="M268,768 L741,244 L836,292 938,248 1000,286 1048,256 1132,298 1204,220 1705.5,768 Z" />
  <path
    id="mountain-2-stroke"
    fill="none"
    stroke="black"
    stroke-linecap="round"
    stroke-linejoin="round"
    stroke-width="4"
    d="M268,768 L798,180 863,231 M851,221 1030,30 1705.5,768
    M741,244 L836,292 938,248 1000,286 1048,256 1132,298 1204,220" />
  <path
    id="cloud-2"
    fill="white"
    stroke="black"
    stroke-linecap="round"
    stroke-linejoin="round"
    stroke-width="4"
    d="M953,426 C923,426 905,377 955,370 960,330 1016,334 1020,365 1030,349 1060,356 1062,378 1093,376 1105,420 1068,425 Z" />
  <path
    id="mountain-2-hills"
    fill="grey"
    stroke="black"
    stroke-linecap="round"
    stroke-linejoin="round"
    stroke-width="4"
    d="M748,544 L860,464 944,514
       M923,500 L1052,400 1206,512
       M1154,552 L1244,482 1377,584" />
  <path
    id="cloud-3"
    fill="white"
    stroke="black"
    stroke-linecap="round"
    stroke-linejoin="round"
    stroke-width="4"
    d="M1460,560 c-43,0 -49,-79 12,-64 13,-43 77,-34 78,12 32,-12 57,50 4,53 Z" />
  <path
    id="mountain-1-fill-top"
    fill="lightgrey"
    d="M172,664 L442,380 714,641 Z" />
  <path
    id="mountain-1-fill-bottom"
    fill="grey"
    d="M172,664 L332,496 L384,552 440,496 495,534 558,491 714,641
       714,768 172,768 Z" />
  <path
    id="mountain-1-stroke"
    fill="none"
    stroke="black"
    stroke-linecap="round"
    stroke-linejoin="round"
    stroke-width="4"
    d="M172,664 L442,380 714,641
       M332,496 L384,552 440,496 495,534 558,491" />
  <path
    id="cloud-0"
    fill="white"
    stroke="black"
    stroke-linecap="round"
    stroke-linejoin="round"
    stroke-width="4"
    d="M200,600 c-43,0 -49,-79 12,-64 13,-43 77,-34 78,12 32,-12 57,50 4,53 Z" />
  <path
    id="clouds-bottom-fill"
    fill="white"
    d="M0,694 Q60,664 112,684 156,646 236,680 360,592 472,672 528,650 578,684 680,592 782,680
       814,662 852,680 990,586 1088,660 1140,640 1194,660 1296,606 1376,669 1415,650 1455,672 1540,616 1620,684
       1654,664 1696,686 1738,623 1850,666 1920,638 1952,694 2016,692 2048,734
       L2048,770 0,770 Z" />
  <path
    id="clouds-stroke"
    fill="none"
    stroke="black"
    stroke-linecap="round"
    stroke-linejoin="round"
    stroke-width="4"
    d="M0,694 Q60,664 112,684 156,646 236,680 360,592 472,672 528,650 578,684 680,592 782,680
      814,662 852,680 990,586 1088,660 1140,640 1194,660 1296,606 1376,669 1415,650 1455,672 1540,616 1620,684
      1654,664 1696,686 1738,623 1850,666 1920,638 1952,694 2016,692 2048,734
      M90,768 Q165,700 250,768
      M175,734 Q220,640 340,706
      M306,722 Q377,679 455,720
      M530,752 Q611,701 683,735
      M646,723 Q738,620 813,708
      M780,716 Q932,674 1028,738
      M1001,756 Q1032,724 1056,746
      M1194,740 Q1247,690 1314,744
      M1302,751 Q1353,720 1426,752
      M1392,740 Q1460,674 1560,735
      M1531,749 Q1582,715 1652,748
      M1762,735 Q1833,695 1920,733
      M1901,751 Q1918,724 1940,735" />
  <!-- <circle
    id="sun-circle"
    fill="yellow"
    cx="215"
    cy="165"
    r="60" />
  <path
    id="sun-rays"
    fill="none"
    stroke="yellow"
    stroke-linecap="round"
    stroke-linejoin="round"
    stroke-width="6"
    d="M215,90 L215,30 M268,112 L310,70 M290,165 L350,165 M268,218 L310,260 M215,240 L215,300 M162,218 L120,260 M140,165 L80,165 M162,112 L120,70" /> -->
  <!-- <path
    id="doves"
    fill="none"
    stroke="darkgrey"
    stroke-linecap="round"
    stroke-linejoin="round"
    stroke-width="4"
    d="M490,230 Q519,235 538,254 560,236 589,228
       M1841,506 Q1875,510 1883,526 1900,510 1922,507
       M109,508 Q134,514 151,529 170,515 193,511" /> -->
</svg>
